<svg width="100" height="100" viewBox="0 0 100 100" fill="none" xmlns="http://www.w3.org/2000/svg">
<path fill-rule="evenodd" clip-rule="evenodd" d="M12.5 93.75L87.5 93.75C89.1576 93.75 90.7473 93.0915 91.9194 91.9194C93.0915 90.7473 93.75 89.1576 93.75 87.5L93.75 12.5C93.75 10.8424 93.0915 9.25269 91.9194 8.08058C90.7473 6.90848 89.1576 6.25 87.5 6.25L12.5 6.25C10.8424 6.25 9.25269 6.90848 8.08058 8.08058C6.90848 9.25269 6.25 10.8424 6.25 12.5L6.25 87.5C6.25 89.1576 6.90848 90.7473 8.08058 91.9194C9.25269 93.0915 10.8424 93.75 12.5 93.75ZM87.5 100C90.8152 100 93.9946 98.683 96.3388 96.3388C98.683 93.9946 100 90.8152 100 87.5L100 12.5C100 9.18479 98.683 6.00537 96.3388 3.66117C93.9946 1.31696 90.8152 0 87.5 0L12.5 0C9.18479 0 6.00537 1.31696 3.66117 3.66117C1.31696 6.00537 0 9.18479 0 12.5L0 87.5C0 90.8152 1.31696 93.9946 3.66117 96.3388C6.00537 98.683 9.18479 100 12.5 100L87.5 100Z" fill="#F5F5F5"/>
<path fill-rule="evenodd" clip-rule="evenodd" d="M52.2123 29.0375C52.5033 29.3277 52.7342 29.6726 52.8917 30.0522C53.0493 30.4319 53.1304 30.8389 53.1304 31.25C53.1304 31.661 53.0493 32.068 52.8917 32.4477C52.7342 32.8273 52.5033 33.1722 52.2123 33.4625L35.6685 50L52.2123 66.5375C52.5028 66.828 52.7333 67.1729 52.8906 67.5526C53.0478 67.9322 53.1287 68.3391 53.1287 68.75C53.1287 69.1609 53.0478 69.5677 52.8906 69.9474C52.7333 70.327 52.5028 70.6719 52.2123 70.9625C51.9217 71.253 51.5768 71.4835 51.1972 71.6407C50.8176 71.798 50.4107 71.8789 49.9998 71.8789C49.5889 71.8789 49.182 71.798 48.8024 71.6407C48.4228 71.4835 48.0778 71.253 47.7873 70.9625L29.0373 52.2125C28.7463 51.9222 28.5154 51.5773 28.3578 51.1977C28.2003 50.818 28.1192 50.411 28.1192 50C28.1192 49.5889 28.2003 49.1819 28.3578 48.8022C28.5154 48.4226 28.7463 48.0777 29.0373 47.7875L47.7873 29.0375C48.0776 28.7464 48.4224 28.5155 48.8021 28.358C49.1817 28.2005 49.5887 28.1194 49.9998 28.1194C50.4108 28.1194 50.8178 28.2005 51.1975 28.358C51.5772 28.5155 51.922 28.7464 52.2123 29.0375Z" fill="#F5F5F5"/>
<path fill-rule="evenodd" clip-rule="evenodd" d="M71.875 50C71.875 50.8288 71.5458 51.6237 70.9597 52.2097C70.3737 52.7958 69.5788 53.125 68.75 53.125L37.5 53.125C36.6712 53.125 35.8763 52.7958 35.2903 52.2097C34.7042 51.6237 34.375 50.8288 34.375 50C34.375 49.1712 34.7042 48.3763 35.2903 47.7903C35.8763 47.2042 36.6712 46.875 37.5 46.875L68.75 46.875C69.5788 46.875 70.3737 47.2042 70.9597 47.7903C71.5458 48.3763 71.875 49.1712 71.875 50Z" fill="#F5F5F5"/>
</svg>
