<svg width="100" height="100" viewBox="0 0 100 100" fill="none" xmlns="http://www.w3.org/2000/svg">
<path d="M54.1667 54.1666H62.5C63.6051 54.1666 64.6649 54.6056 65.4463 55.387C66.2277 56.1684 66.6667 57.2282 66.6667 58.3333C66.6667 59.4383 66.2277 60.4981 65.4463 61.2795C64.6649 62.0609 63.6051 62.4999 62.5 62.4999H50C49.4523 62.5016 48.9098 62.3949 48.4035 62.1861C47.8973 61.9773 47.4373 61.6704 47.05 61.2832C46.6628 60.896 46.3559 60.436 46.1471 59.9297C45.9383 59.4234 45.8317 58.8809 45.8333 58.3333V41.6666C45.8333 40.5615 46.2723 39.5017 47.0537 38.7203C47.8351 37.9389 48.8949 37.4999 50 37.4999C51.1051 37.4999 52.1649 37.9389 52.9463 38.7203C53.7277 39.5017 54.1667 40.5615 54.1667 41.6666V54.1666ZM24.4542 36.9208C23.5021 36.4792 22.6766 35.8051 22.0537 34.9605C21.4308 34.1159 21.0306 33.128 20.8901 32.0881C20.7495 31.0481 20.8731 29.9894 21.2494 29.0098C21.6257 28.0301 22.2426 27.161 23.0432 26.4826C23.8439 25.8041 24.8024 25.3382 25.8306 25.1278C26.8587 24.9174 27.9233 24.9692 28.9261 25.2786C29.9289 25.5879 30.8376 26.1448 31.5686 26.8978C32.2995 27.6509 32.829 28.5758 33.1083 29.5874C34.6099 28.7044 36.1786 27.9409 37.8 27.3041C35.9777 26.0378 34.6075 24.2228 33.8889 22.1233C33.1702 20.0239 33.1408 17.7499 33.8049 15.6326C34.469 13.5153 35.7918 11.6653 37.5807 10.3524C39.3696 9.03941 41.531 8.33201 43.75 8.33325H56.25C58.469 8.33201 60.6304 9.03941 62.4193 10.3524C64.2082 11.6653 65.531 13.5153 66.1951 15.6326C66.8592 17.7499 66.8297 20.0239 66.1111 22.1233C65.3925 24.2228 64.0222 26.0378 62.2 27.3041C63.825 27.9458 65.3958 28.7083 66.8917 29.5874C67.171 28.5758 67.7005 27.6509 68.4314 26.8978C69.1623 26.1448 70.0711 25.5879 71.0739 25.2786C72.0767 24.9692 73.1413 24.9174 74.1694 25.1278C75.1975 25.3382 76.1561 25.8041 76.9568 26.4826C77.7574 27.161 78.3743 28.0301 78.7506 29.0098C79.1269 29.9894 79.2505 31.0481 79.1099 32.0881C78.9693 33.128 78.5691 34.1159 77.9463 34.9605C77.3234 35.8051 76.4979 36.4792 75.5458 36.9208C79.6203 41.7826 82.223 47.7061 83.0481 53.9957C83.8732 60.2852 82.8865 66.6796 80.2039 72.4279C77.5212 78.1762 73.2541 83.0397 67.9036 86.4472C62.5531 89.8547 56.3413 91.6647 49.9979 91.6647C43.6545 91.6647 37.4427 89.8547 32.0922 86.4472C26.7417 83.0397 22.4746 78.1762 19.792 72.4279C17.1093 66.6796 16.1227 60.2852 16.9477 53.9957C17.7728 47.7061 20.3755 41.7826 24.45 36.9208H24.4542ZM50 83.3332C53.283 83.3332 56.5339 82.6866 59.5671 81.4302C62.6002 80.1739 65.3562 78.3324 67.6777 76.0109C69.9991 73.6895 71.8406 70.9335 73.097 67.9003C74.3533 64.8672 75 61.6163 75 58.3333C75 55.0502 74.3533 51.7993 73.097 48.7662C71.8406 45.733 69.9991 42.977 67.6777 40.6556C65.3562 38.3341 62.6002 36.4926 59.5671 35.2363C56.5339 33.9799 53.283 33.3333 50 33.3333C43.3696 33.3333 37.0107 35.9672 32.3223 40.6556C27.6339 45.344 25 51.7028 25 58.3333C25 64.9637 27.6339 71.3225 32.3223 76.0109C37.0107 80.6993 43.3696 83.3332 50 83.3332V83.3332ZM43.75 16.6666C43.1975 16.6666 42.6675 16.8861 42.2768 17.2768C41.8861 17.6675 41.6667 18.1974 41.6667 18.7499C41.6667 19.3025 41.8861 19.8324 42.2768 20.2231C42.6675 20.6138 43.1975 20.8333 43.75 20.8333H56.25C56.8025 20.8333 57.3324 20.6138 57.7231 20.2231C58.1138 19.8324 58.3333 19.3025 58.3333 18.7499C58.3333 18.1974 58.1138 17.6675 57.7231 17.2768C57.3324 16.8861 56.8025 16.6666 56.25 16.6666H43.75Z" fill="#F5F5F5"/>
</svg>
