<svg width="100" height="100" viewBox="0 0 100 100" fill="none" xmlns="http://www.w3.org/2000/svg">
<g clip-path="url(#clip0)">
<path fill-rule="evenodd" clip-rule="evenodd" d="M87.5 18.75H12.5C10.8424 18.75 9.25268 19.4085 8.08058 20.5806C6.90848 21.7527 6.25 23.3424 6.25 25V75C6.25 76.6576 6.90848 78.2473 8.08058 79.4194C9.25268 80.5915 10.8424 81.25 12.5 81.25H87.5C89.1576 81.25 90.7473 80.5915 91.9194 79.4194C93.0915 78.2473 93.75 76.6576 93.75 75V25C93.75 23.3424 93.0915 21.7527 91.9194 20.5806C90.7473 19.4085 89.1576 18.75 87.5 18.75V18.75ZM12.5 12.5C9.18479 12.5 6.00537 13.817 3.66117 16.1612C1.31696 18.5054 0 21.6848 0 25L0 75C0 78.3152 1.31696 81.4946 3.66117 83.8388C6.00537 86.183 9.18479 87.5 12.5 87.5H87.5C90.8152 87.5 93.9946 86.183 96.3388 83.8388C98.683 81.4946 100 78.3152 100 75V25C100 21.6848 98.683 18.5054 96.3388 16.1612C93.9946 13.817 90.8152 12.5 87.5 12.5H12.5Z" fill="#F5F5F5"/>
<path d="M12.5 34.375C12.5 33.5462 12.8292 32.7513 13.4153 32.1653C14.0013 31.5792 14.7962 31.25 15.625 31.25H28.125C28.9538 31.25 29.7487 31.5792 30.3347 32.1653C30.9208 32.7513 31.25 33.5462 31.25 34.375V40.625C31.25 41.4538 30.9208 42.2487 30.3347 42.8347C29.7487 43.4208 28.9538 43.75 28.125 43.75H15.625C14.7962 43.75 14.0013 43.4208 13.4153 42.8347C12.8292 42.2487 12.5 41.4538 12.5 40.625V34.375Z" fill="#F5F5F5"/>
<path fill-rule="evenodd" clip-rule="evenodd" d="M12.5 53.125C12.5 52.2962 12.8292 51.5013 13.4153 50.9153C14.0013 50.3292 14.7962 50 15.625 50H46.875C47.7038 50 48.4987 50.3292 49.0847 50.9153C49.6708 51.5013 50 52.2962 50 53.125C50 53.9538 49.6708 54.7487 49.0847 55.3347C48.4987 55.9208 47.7038 56.25 46.875 56.25H15.625C14.7962 56.25 14.0013 55.9208 13.4153 55.3347C12.8292 54.7487 12.5 53.9538 12.5 53.125ZM12.5 65.625C12.5 64.7962 12.8292 64.0013 13.4153 63.4153C14.0013 62.8292 14.7962 62.5 15.625 62.5H21.875C22.7038 62.5 23.4987 62.8292 24.0847 63.4153C24.6708 64.0013 25 64.7962 25 65.625C25 66.4538 24.6708 67.2487 24.0847 67.8347C23.4987 68.4208 22.7038 68.75 21.875 68.75H15.625C14.7962 68.75 14.0013 68.4208 13.4153 67.8347C12.8292 67.2487 12.5 66.4538 12.5 65.625ZM31.25 65.625C31.25 64.7962 31.5792 64.0013 32.1653 63.4153C32.7513 62.8292 33.5462 62.5 34.375 62.5H40.625C41.4538 62.5 42.2487 62.8292 42.8347 63.4153C43.4208 64.0013 43.75 64.7962 43.75 65.625C43.75 66.4538 43.4208 67.2487 42.8347 67.8347C42.2487 68.4208 41.4538 68.75 40.625 68.75H34.375C33.5462 68.75 32.7513 68.4208 32.1653 67.8347C31.5792 67.2487 31.25 66.4538 31.25 65.625ZM50 65.625C50 64.7962 50.3292 64.0013 50.9153 63.4153C51.5013 62.8292 52.2962 62.5 53.125 62.5H59.375C60.2038 62.5 60.9987 62.8292 61.5847 63.4153C62.1708 64.0013 62.5 64.7962 62.5 65.625C62.5 66.4538 62.1708 67.2487 61.5847 67.8347C60.9987 68.4208 60.2038 68.75 59.375 68.75H53.125C52.2962 68.75 51.5013 68.4208 50.9153 67.8347C50.3292 67.2487 50 66.4538 50 65.625ZM68.75 65.625C68.75 64.7962 69.0792 64.0013 69.6653 63.4153C70.2513 62.8292 71.0462 62.5 71.875 62.5H78.125C78.9538 62.5 79.7487 62.8292 80.3347 63.4153C80.9208 64.0013 81.25 64.7962 81.25 65.625C81.25 66.4538 80.9208 67.2487 80.3347 67.8347C79.7487 68.4208 78.9538 68.75 78.125 68.75H71.875C71.0462 68.75 70.2513 68.4208 69.6653 67.8347C69.0792 67.2487 68.75 66.4538 68.75 65.625Z" fill="#F5F5F5"/>
</g>
<defs>
<clipPath id="clip0">
<rect width="100" height="100" fill="white"/>
</clipPath>
</defs>
</svg>
