<svg width="100" height="100" viewBox="0 0 100 100" fill="none" xmlns="http://www.w3.org/2000/svg">
<path d="M93.5 51.9063L84.125 30.0312C83.8858 29.4664 83.4856 28.9845 82.9744 28.6455C82.4631 28.3065 81.8634 28.1255 81.25 28.125H71.875V21.875C71.875 21.0462 71.5458 20.2513 70.9597 19.6653C70.3737 19.0792 69.5788 18.75 68.75 18.75H9.375C8.5462 18.75 7.75134 19.0792 7.16529 19.6653C6.57924 20.2513 6.25 21.0462 6.25 21.875V75C6.25 75.8288 6.57924 76.6237 7.16529 77.2097C7.75134 77.7958 8.5462 78.125 9.375 78.125H16.0625C16.7821 80.773 18.3531 83.1107 20.5331 84.7773C22.7131 86.4439 25.3809 87.3469 28.125 87.3469C30.8691 87.3469 33.5369 86.4439 35.7169 84.7773C37.8969 83.1107 39.4679 80.773 40.1875 78.125H59.8125C60.5321 80.773 62.1031 83.1107 64.2831 84.7773C66.4631 86.4439 69.1309 87.3469 71.875 87.3469C74.6191 87.3469 77.2869 86.4439 79.4669 84.7773C81.6469 83.1107 83.2179 80.773 83.9375 78.125H90.625C91.4538 78.125 92.2487 77.7958 92.8347 77.2097C93.4208 76.6237 93.75 75.8288 93.75 75V53.125C93.7492 52.7061 93.6642 52.2916 93.5 51.9063ZM71.875 34.375H79.1875L85.875 50H71.875V34.375ZM28.125 81.25C26.8889 81.25 25.6805 80.8834 24.6527 80.1967C23.6249 79.5099 22.8238 78.5338 22.3508 77.3918C21.8777 76.2497 21.7539 74.9931 21.9951 73.7807C22.2362 72.5683 22.8315 71.4547 23.7056 70.5806C24.5797 69.7065 25.6933 69.1112 26.9057 68.8701C28.1181 68.6289 29.3747 68.7527 30.5168 69.2258C31.6588 69.6988 32.6349 70.4999 33.3217 71.5277C34.0084 72.5555 34.375 73.7639 34.375 75C34.375 76.6576 33.7165 78.2473 32.5444 79.4194C31.3723 80.5915 29.7826 81.25 28.125 81.25ZM59.8125 71.875H40.1875C39.4679 69.227 37.8969 66.8893 35.7169 65.2227C33.5369 63.5561 30.8691 62.6531 28.125 62.6531C25.3809 62.6531 22.7131 63.5561 20.5331 65.2227C18.3531 66.8893 16.7821 69.227 16.0625 71.875H12.5V25H65.625V64.25C64.202 65.0759 62.9561 66.1746 61.9586 67.4831C60.9612 68.7915 60.2319 70.284 59.8125 71.875ZM71.875 81.25C70.6389 81.25 69.4305 80.8834 68.4027 80.1967C67.3749 79.5099 66.5738 78.5338 66.1008 77.3918C65.6277 76.2497 65.5039 74.9931 65.7451 73.7807C65.9862 72.5683 66.5815 71.4547 67.4556 70.5806C68.3297 69.7065 69.4433 69.1112 70.6557 68.8701C71.8681 68.6289 73.1247 68.7527 74.2668 69.2258C75.4088 69.6988 76.3849 70.4999 77.0717 71.5277C77.7584 72.5555 78.125 73.7639 78.125 75C78.125 76.6576 77.4665 78.2473 76.2944 79.4194C75.1223 80.5915 73.5326 81.25 71.875 81.25ZM87.5 71.875H83.9375C83.2465 69.1985 81.6877 66.8266 79.5051 65.1303C77.3225 63.434 74.6392 62.509 71.875 62.5V56.25H87.5V71.875Z" fill="#F5F5F5"/>
</svg>
