<svg width="94" height="100" viewBox="0 0 94 100" fill="none" xmlns="http://www.w3.org/2000/svg">
<g clip-path="url(#clip0)">
<path d="M8.87174 56.0484L41.1298 94.758C43.9524 97.9838 47.2454 99.5967 51.0088 99.5967C54.3691 99.5967 57.2588 98.5887 59.6782 96.5725L87.7024 72.9838C90.3906 70.5645 91.9363 67.5403 92.3395 63.9113C92.7427 60.551 91.7346 57.258 89.3153 54.0322L57.0572 15.3225C53.5626 10.7527 48.9927 7.86287 43.3475 6.65319L15.3234 0.201579C12.6352 -0.604872 10.0814 -3.37237e-05 7.66206 2.0161L4.23464 5.04029C2.21851 6.51878 1.21045 8.93814 1.21045 12.2984L2.82335 41.129C3.4954 46.9086 5.51152 51.8817 8.87174 56.0484ZM13.7104 8.46771L42.1379 15.3225C45.0949 15.9946 48.0518 17.8091 51.0088 20.7661L83.2669 59.4758C84.3422 60.551 84.6782 61.7607 84.275 63.1048C84.275 63.9113 83.6701 65.0537 82.4604 66.5322L54.4363 90.1209C53.4954 90.9274 52.3529 91.297 51.0088 91.2298C49.6648 91.1626 48.6567 90.6586 47.9846 89.7177L15.7266 51.008C13.1728 47.7822 11.8959 44.4892 11.8959 41.129L9.8798 11.4919L13.7104 8.46771ZM25.2024 22.5806C25.2024 23.7903 24.7992 24.7984 23.9927 25.6048C23.1863 26.4113 22.1782 26.8145 20.9685 26.8145C19.7588 26.8145 18.7508 26.4113 17.9443 25.6048C17.1379 24.7984 16.7346 23.7903 16.7346 22.5806C16.7346 21.3709 17.1379 20.3629 17.9443 19.5564C18.7508 18.75 19.7588 18.3467 20.9685 18.3467C22.1782 18.3467 23.1863 18.75 23.9927 19.5564C24.7992 20.3629 25.2024 21.3709 25.2024 22.5806ZM27.4201 52.6209L66.9363 65.1209H68.3475C70.2293 65.1209 71.6406 64.1129 72.5814 62.0967C72.9846 61.0215 72.9174 59.9462 72.3798 58.8709C71.8422 57.7957 71.0357 57.0564 69.9604 56.6532L30.4443 44.1532C29.3691 43.6156 28.2602 43.6156 27.1177 44.1532C25.9752 44.6908 25.2024 45.4973 24.7992 46.5725C23.9927 49.6639 24.8664 51.6801 27.4201 52.6209ZM59.6782 71.9758C59.6782 73.7231 59.0734 75.2352 57.8637 76.5121C56.654 77.7889 55.1083 78.4274 53.2266 78.4274C51.3449 78.4274 49.7992 77.7889 48.5895 76.5121C47.3798 75.2352 46.775 73.7231 46.775 71.9758C46.775 70.2285 47.4134 68.7164 48.6903 67.4395C49.9672 66.1626 51.4793 65.5242 53.2266 65.5242C54.9739 65.5242 56.486 66.1626 57.7629 67.4395C59.0398 68.7164 59.6782 70.2285 59.6782 71.9758ZM46.775 37.7016C46.775 39.4489 46.1365 40.961 44.8596 42.2379C43.5828 43.5148 42.0707 44.1532 40.3234 44.1532C38.576 44.1532 37.0639 43.5148 35.7871 42.2379C34.5102 40.961 33.8717 39.4489 33.8717 37.7016C33.8717 35.9543 34.4766 34.4422 35.6863 33.1653C36.8959 31.8884 38.4416 31.25 40.3234 31.25C42.2051 31.25 43.7508 31.8884 44.9604 33.1653C46.1701 34.4422 46.775 35.9543 46.775 37.7016Z" fill="#F5F5F5"/>
</g>
<defs>
<clipPath id="clip0">
<rect width="93.55" height="100" fill="white"/>
</clipPath>
</defs>
</svg>
