<svg width="100" height="100" viewBox="0 0 100 100" fill="none" xmlns="http://www.w3.org/2000/svg">
<path d="M88.4746 83.8008L88.4747 83.801C88.5026 83.8289 88.5248 83.862 88.5399 83.8985L89.0018 83.7071L88.5399 83.8985C88.5551 83.9351 88.5628 83.9742 88.5628 84.0137C88.5628 84.0532 88.5551 84.0923 88.5399 84.1288L89.0018 84.3202L88.5399 84.1288C88.5248 84.1652 88.5028 84.1983 88.475 84.2261C88.4749 84.2262 88.4748 84.2263 88.4747 84.2264L84.2172 88.4742L84.2167 88.4747C84.1887 88.5026 84.1556 88.5248 84.1191 88.5399L84.3105 89.0018L84.119 88.5399C84.0825 88.5551 84.0434 88.5628 84.0039 88.5628C83.9644 88.5628 83.9253 88.5551 83.8888 88.5399L83.6974 89.0018L83.8887 88.5399C83.8523 88.5248 83.8191 88.5026 83.7912 88.4747L83.791 88.4745L58.4297 63.1229L58.1188 62.8122L57.7707 63.0807C52.7707 66.9387 46.6673 69.0313 40.2344 69.0313C32.5349 69.0313 25.3088 66.037 19.8753 60.594L19.875 60.5937C14.4413 55.16 11.4375 47.9238 11.4375 40.2344C11.4375 32.5349 14.4317 25.3088 19.8747 19.8753L19.875 19.875C25.3088 14.4413 32.545 11.4375 40.2344 11.4375C47.9242 11.4375 55.1601 14.4318 60.5934 19.8747C66.0277 25.3186 69.0313 32.5355 69.0313 40.2344C69.0313 46.6674 66.9386 52.7803 63.0713 57.78L62.802 58.1282L63.1133 58.4395L88.4746 83.8008ZM56.0563 56.0571L56.0567 56.0567C60.2814 51.832 62.6094 46.2067 62.6094 40.2344C62.6094 34.2617 60.2812 28.6465 56.0571 24.4125C51.8319 20.1773 46.2062 17.8594 40.2344 17.8594C34.2617 17.8594 28.6465 20.1876 24.4125 24.4117L24.4121 24.4121C20.1874 28.6368 17.8594 34.262 17.8594 40.2344C17.8594 46.2071 20.1876 51.8222 24.4117 56.0563L24.4125 56.0571C28.6465 60.2812 34.2617 62.6094 40.2344 62.6094C46.2071 62.6094 51.8222 60.2812 56.0563 56.0571Z" fill="#F5F5F5" stroke="black"/>
</svg>
