<svg width="100" height="100" viewBox="0 0 100 100" fill="none" xmlns="http://www.w3.org/2000/svg">
<path d="M37.0278 88.8889C40.4796 88.8889 43.2778 86.0907 43.2778 82.6389C43.2778 79.1871 40.4796 76.3889 37.0278 76.3889C33.5761 76.3889 30.7778 79.1871 30.7778 82.6389C30.7778 86.0907 33.5761 88.8889 37.0278 88.8889Z" fill="#F5F5F5"/>
<path d="M75 88.8889C78.4518 88.8889 81.25 86.0907 81.25 82.6389C81.25 79.1871 78.4518 76.3889 75 76.3889C71.5482 76.3889 68.75 79.1871 68.75 82.6389C68.75 86.0907 71.5482 88.8889 75 88.8889Z" fill="#F5F5F5"/>
<path d="M91.8889 14.9166C91.6304 14.598 91.3046 14.3406 90.9347 14.1629C90.5649 13.9852 90.1603 13.8916 89.75 13.8889H31.9167L33.7222 19.4444H86.1111L78.6945 52.7778H37.0278L24.3334 12.5833C24.196 12.1568 23.9576 11.7699 23.6384 11.4555C23.3191 11.1411 22.9286 10.9085 22.5 10.7778L11.1111 7.27776C10.7609 7.17015 10.393 7.13257 10.0283 7.16716C9.66355 7.20175 9.30922 7.30784 8.98551 7.47937C8.33173 7.82579 7.84235 8.41774 7.62502 9.12498C7.40769 9.83223 7.48021 10.5968 7.82664 11.2506C8.17306 11.9044 8.765 12.3938 9.47224 12.6111L19.4445 15.6666L32.1945 55.9444L27.6389 59.6667L27.2778 60.0278C26.151 61.3264 25.5122 62.9772 25.4717 64.6961C25.4311 66.4149 25.9912 68.0941 27.0556 69.4444C27.8127 70.3652 28.7748 71.0959 29.8649 71.5783C30.9549 72.0606 32.1428 72.2811 33.3334 72.2222H79.6945C80.4312 72.2222 81.1377 71.9296 81.6587 71.4086C82.1796 70.8877 82.4723 70.1811 82.4723 69.4444C82.4723 68.7077 82.1796 68.0012 81.6587 67.4802C81.1377 66.9593 80.4312 66.6667 79.6945 66.6667H32.8889C32.569 66.6557 32.2574 66.5625 31.9841 66.396C31.7108 66.2294 31.485 65.9952 31.3286 65.716C31.1722 65.4367 31.0905 65.1219 31.0913 64.8018C31.0922 64.4817 31.1755 64.1673 31.3334 63.8889L38.0278 58.3333H80.9167C81.5588 58.349 82.1865 58.1417 82.693 57.7467C83.1994 57.3516 83.5533 56.7933 83.6945 56.1667L92.5 17.2778C92.5845 16.8636 92.5734 16.4357 92.4675 16.0265C92.3616 15.6174 92.1637 15.2378 91.8889 14.9166V14.9166Z" fill="#F5F5F5"/>
</svg>
