<svg width="100" height="100" viewBox="0 0 100 100" fill="none" xmlns="http://www.w3.org/2000/svg">
<path d="M49.9999 8.33334C27.4124 8.33334 8.33325 27.4125 8.33325 50C8.33325 63.2875 14.9666 75.325 24.9999 83.0167V83.3334H25.4249C32.3749 88.5209 40.8874 91.6667 49.9999 91.6667C59.1124 91.6667 67.6249 88.5209 74.5749 83.3334H74.9999V83.0167C85.0333 75.325 91.6666 63.2917 91.6666 50C91.6666 27.4125 72.5874 8.33334 49.9999 8.33334ZM33.6416 78.8625C34.2556 76.085 35.798 73.5997 38.0144 71.8166C40.2307 70.0335 42.9887 69.0591 45.8333 69.0542H54.1666C57.011 69.0599 59.7685 70.0346 61.9847 71.8175C64.201 73.6005 65.7435 76.0853 66.3583 78.8625C61.4916 81.6833 55.8999 83.3334 49.9999 83.3334C44.0999 83.3334 38.5083 81.6833 33.6416 78.8625ZM73.3749 73.5042C71.7856 69.7203 69.1155 66.4892 65.6988 64.2154C62.2821 61.9416 58.2707 60.726 54.1666 60.7208H45.8333C41.7291 60.726 37.7177 61.9416 34.301 64.2154C30.8844 66.4892 28.2143 69.7203 26.6249 73.5042C20.5124 67.425 16.6666 59.0667 16.6666 50C16.6666 31.9292 31.9291 16.6667 49.9999 16.6667C68.0708 16.6667 83.3333 31.9292 83.3333 50C83.3333 59.0667 79.4874 67.425 73.3749 73.5042Z" fill="#F5F5F5"/>
<path d="M49.9999 25C40.4999 25 33.3333 32.1667 33.3333 41.6667C33.3333 51.1667 40.4999 58.3333 49.9999 58.3333C59.4999 58.3333 66.6666 51.1667 66.6666 41.6667C66.6666 32.1667 59.4999 25 49.9999 25ZM49.9999 50C45.0916 50 41.6666 46.575 41.6666 41.6667C41.6666 36.7583 45.0916 33.3333 49.9999 33.3333C54.9083 33.3333 58.3333 36.7583 58.3333 41.6667C58.3333 46.575 54.9083 50 49.9999 50Z" fill="#F5F5F5"/>
</svg>
