<svg width="100" height="100" viewBox="0 0 100 100" fill="none" xmlns="http://www.w3.org/2000/svg">
<path d="M70.1915 51.3916L53.5873 23.2166C53.2191 22.592 52.6944 22.0742 52.0648 21.7145C51.4353 21.3548 50.7228 21.1656 49.9977 21.1656C49.2726 21.1656 48.5601 21.3548 47.9306 21.7145C47.3011 22.0742 46.7763 22.592 46.4081 23.2166L37.9581 37.5624C38.7998 45.8083 41.8873 49.1583 47.9039 49.1583C56.2581 49.1583 63.804 49.8916 70.1956 51.3916H70.1915ZM76.6706 62.3791C70.2248 59.1833 60.0998 57.4916 47.8998 57.4916C40.3206 57.4916 34.9415 54.0249 32.0123 47.6416L17.1373 72.8833C16.764 73.5163 16.5647 74.2368 16.5597 74.9717C16.5547 75.7065 16.7442 76.4297 17.1089 77.0677C17.4736 77.7057 18.0006 78.2359 18.6363 78.6045C19.2721 78.9732 19.9941 79.1671 20.729 79.1666H79.2706C80.0052 79.1663 80.7266 78.9719 81.3618 78.603C81.997 78.2341 82.5233 77.7038 82.8875 77.0659C83.2518 76.428 83.4409 75.7051 83.4357 74.9706C83.4305 74.2361 83.2313 73.516 82.8581 72.8833L76.6706 62.3833V62.3791ZM60.7664 18.9833L90.0373 68.6499C91.1569 70.5484 91.7547 72.7091 91.77 74.913C91.7853 77.117 91.2177 79.2858 90.1245 81.1996C89.0314 83.1134 87.4517 84.7042 85.5456 85.8106C83.6394 86.9171 81.4746 87.4999 79.2706 87.4999H20.729C18.5252 87.5002 16.3606 86.9178 14.4545 85.8119C12.5483 84.706 10.9684 83.1158 9.87494 81.2025C8.78145 79.2892 8.21321 77.1208 8.22781 74.9171C8.24242 72.7134 8.83936 70.5527 9.95812 68.6541L39.229 18.9874C40.3332 17.1126 41.9076 15.5584 43.7967 14.4786C45.6857 13.3988 47.8239 12.8309 49.9998 12.8309C52.1757 12.8309 54.3138 13.3988 56.2029 14.4786C58.0919 15.5584 59.6664 17.1126 60.7706 18.9874L60.7664 18.9833Z" fill="#F5F5F5"/>
</svg>
